<svg width="1200" height="162" viewBox="0 0 1200 162" fill="none" xmlns="http://www.w3.org/2000/svg">
<path d="M112.227 70.4557C112.227 51.9594 112.658 33.4631 112.062 15.09C111.734 5.14313 113.562 0.704013 125.316 0.292983C166.144 -0.734591 166.123 -1.26893 166.123 39.0531C166.123 62.6051 165.877 86.1571 166.308 109.709C166.308 115.135 162.507 124.609 172.76 124.362C181.308 124.136 177.897 115.546 178.02 110.552C178.472 93.3706 178.616 76.1691 178.02 58.988C177.568 44.4376 184.431 44.3554 194.459 49.8426C198.388 51.9003 201.95 54.5947 205 57.8166C216.609 70.7435 216.732 133.98 205.472 147.565C194.726 160.512 157.719 166.061 134.932 157.841C115.371 150.73 111.282 135.049 112.042 116.347C112.72 101.036 112.227 85.746 112.227 70.4557Z" fill="#34503A"/>
<path d="M100.7 64.6191C100.7 80.5465 99.59 96.5767 101.008 112.381C102.508 128.986 92.3572 126.5 82.0423 127.239C69.7137 128.103 66.0357 125.554 65.9946 111.559C65.9946 106.524 65.6658 101.283 65.9946 96.3095C66.3439 90.3496 69.652 82.5195 61.7001 82.4373C53.1728 82.4373 54.8577 91.521 54.7755 97.5837C54.57 114.148 54.2618 130.754 54.7755 147.298C55.1248 157.121 51.6728 160.04 41.7483 160.779C0.0159823 163.862 0.0159815 164.253 0.11872 122.204C0.11872 108.825 -0.1484 95.4874 0.11872 82.0468C0.837888 58.7414 12.3446 47.2737 35.7484 46.5338C39.5696 46.195 43.4133 46.195 47.2345 46.5338C61.9467 48.589 66.8781 44.4787 66.2617 28.0375C66.1178 24.256 66.2617 22.3036 66.0767 16.5903C65.3987 1.64938 71.4602 0.375189 83.645 0.210777C96.4462 0.0463656 102.138 2.75916 101.049 16.8369C99.816 32.6821 100.7 48.6917 100.7 64.6191Z" fill="#34503A"/>
<path d="M302.416 20.7417L325.327 17.3507H327.032V70.7846C330.446 66.3465 334.823 62.7416 339.833 60.2417C344.854 57.6787 350.409 56.3406 356.045 56.3369C366.114 56.3369 373.977 59.3374 379.634 65.3384C385.292 71.3395 388.12 79.7724 388.12 90.6373V142.961H363.463V99.1662C363.463 92.713 362.128 87.8012 359.477 84.3897C358.163 82.7186 356.468 81.3861 354.534 80.5031C352.601 79.62 350.484 79.2122 348.361 79.3134C342.748 79.1232 337.276 81.0946 333.073 84.8212C328.964 88.4931 326.909 93.8981 326.909 101.036V142.961H302.252L302.416 20.7417Z" fill="#34503A"/>
<path d="M394.922 100.009C394.821 93.76 395.974 87.5545 398.312 81.7591C400.403 76.6204 403.543 71.9742 407.53 68.1172C411.517 64.2601 416.265 61.2769 421.469 59.3579C432.499 55.3849 444.569 55.3849 455.599 59.3579C460.807 61.2745 465.559 64.2566 469.55 68.1138C473.541 71.971 476.683 76.6184 478.777 81.7591C481.115 87.5545 482.268 93.76 482.167 100.009C482.275 106.346 481.094 112.639 478.695 118.505C476.547 123.735 473.365 128.477 469.34 132.447C465.315 136.416 460.529 139.531 455.27 141.605C444.521 145.798 432.589 145.798 421.839 141.605C416.58 139.531 411.795 136.416 407.769 132.447C403.744 128.477 400.562 123.735 398.415 118.505C396.009 112.64 394.82 106.347 394.922 100.009ZM420.38 100.009C420.38 107.037 421.962 112.34 425.127 116.142C426.882 117.912 428.971 119.317 431.272 120.276C433.573 121.235 436.041 121.729 438.534 121.729C441.027 121.729 443.495 121.235 445.796 120.276C448.097 119.317 450.186 117.912 451.941 116.142C455.106 112.401 456.688 107.037 456.688 100.009C456.688 93.3364 455.106 88.2191 451.941 84.6568C448.332 81.2035 443.529 79.2762 438.534 79.2762C433.539 79.2762 428.736 81.2035 425.127 84.6568C421.962 88.3287 420.38 93.446 420.38 100.009Z" fill="#34503A"/>
<path d="M515.084 76.5801C516.08 73.6133 517.567 70.8346 519.482 68.3595C521.377 65.9 523.644 63.7506 526.201 61.9885C528.73 60.2334 531.498 58.8493 534.42 57.8782C537.323 56.9164 540.361 56.4239 543.42 56.4191C548.935 56.2975 554.402 57.4657 559.385 59.8306C563.848 62.0368 567.606 65.4464 570.234 69.6748C573.319 65.4157 577.522 62.0938 582.378 60.0772C587.735 57.6477 593.551 56.4 599.433 56.4191C604.529 56.3535 609.595 57.2027 614.391 58.9264C618.74 60.5331 622.743 62.9533 626.186 66.0577C629.504 69.0916 632.138 72.7978 633.912 76.9295C635.751 81.2773 636.674 85.9577 636.624 90.6784V142.961H611.967V99.1662C611.967 85.931 606.364 79.3134 595.159 79.3134C592.489 79.2105 589.829 79.6967 587.368 80.7373C584.907 81.778 582.705 83.3477 580.919 85.335C577.164 89.6801 575.215 95.2988 575.474 101.036V142.961H550.817V99.1662C550.817 85.931 545.214 79.3134 534.009 79.3134C531.356 79.2271 528.717 79.7213 526.275 80.7614C523.833 81.8014 521.648 83.3624 519.872 85.335C516.137 89.6905 514.198 95.3037 514.447 101.036V142.961H489.79V80.3205C489.802 77.168 489.555 74.0198 489.051 70.9079C488.505 67.6805 487.623 64.5189 486.42 61.4747L511.078 58.0837C512.736 61.4119 513.667 65.0548 513.811 68.7705C513.837 71.0786 513.49 73.3758 512.783 75.5731L515.084 76.5801Z" fill="#34503A"/>
<path d="M723.499 131.411C718.96 135.748 713.554 139.075 707.637 141.173C701.302 143.508 694.6 144.691 687.849 144.667C681.708 144.721 675.61 143.627 669.87 141.441C664.58 139.409 659.777 136.286 655.774 132.275C651.814 128.215 648.723 123.39 646.692 118.094C644.494 112.321 643.4 106.186 643.466 100.009C643.433 94.1788 644.586 88.403 646.857 83.0332C649.048 77.8564 652.191 73.1369 656.124 69.1199C660.046 65.1342 664.718 61.9633 669.87 59.7895C675.237 57.5123 681.012 56.3516 686.842 56.378C691.404 56.3259 695.947 56.9563 700.322 58.2482C704.023 59.3607 707.5 61.1135 710.596 63.4271C713.403 65.5491 715.699 68.274 717.315 71.4011C718.921 74.6437 719.731 78.2228 719.678 81.8413C719.776 85.9176 718.932 89.9616 717.212 93.6584C715.337 97.2342 712.487 100.206 708.993 102.228C704.332 104.95 699.3 106.978 694.055 108.25C686.54 110.154 678.917 111.595 671.226 112.566C673.129 115.499 675.801 117.853 678.952 119.368C682.542 121.025 686.465 121.833 690.418 121.732C694.918 121.692 699.374 120.836 703.568 119.204C708.065 117.476 712.271 115.071 716.041 112.072L723.499 131.411ZM668.514 93.905C675.22 93.7208 681.881 92.7552 688.363 91.0278C693.116 89.5481 695.493 87.6779 695.493 85.4172C695.493 83.8279 694.445 82.4099 692.349 81.1631C690.211 79.9179 687.775 79.2785 685.301 79.3134C675.685 79.3134 670.089 84.1773 668.514 93.905Z" fill="#34503A"/>
<path d="M757.958 72.1821C759.418 67.4217 762.549 63.3492 766.773 60.7143C771.268 57.8079 776.523 56.2989 781.875 56.378C786.954 56.3233 791.978 57.4268 796.567 59.6046C800.935 61.7159 804.764 64.7942 807.765 68.6061C811.024 72.8165 813.47 77.5976 814.978 82.7044C816.758 88.7054 817.617 94.9419 817.526 101.201C817.577 107.165 816.424 113.079 814.135 118.587C811.982 123.786 808.802 128.498 804.786 132.439C800.71 136.364 795.899 139.444 790.629 141.502C784.928 143.762 778.843 144.892 772.711 144.832C765.154 144.855 757.616 144.056 750.232 142.448C743.843 141.109 737.692 138.816 731.986 135.645V20.7417L754.896 17.3507H756.602V58.9264C756.602 60.9815 756.602 63.3244 756.335 65.6467C756.227 67.4368 756.029 69.2203 755.739 70.9901L757.958 72.1821ZM792.067 100.954C792.067 86.4722 786.067 79.2312 774.067 79.2312C771.547 79.1534 769.048 79.7204 766.808 80.8784C764.568 82.0365 762.66 83.7473 761.266 85.8488C758.143 90.2468 756.602 96.3095 756.602 103.996V118.382C761.373 120.622 766.6 121.72 771.869 121.588C778.417 121.588 783.423 119.834 786.889 116.327C790.341 113.038 792.067 107.818 792.067 101.036V100.954Z" fill="#34503A"/>
<path d="M824.306 100.009C824.206 93.76 825.359 87.5545 827.697 81.7591C829.834 76.5813 833.017 71.9006 837.046 68.0101C841.015 64.2105 845.722 61.2658 850.875 59.3579C861.897 55.3846 873.961 55.3846 884.984 59.3579C890.136 61.2658 894.843 64.2105 898.812 68.0101C902.857 71.9001 906.061 76.5799 908.223 81.7591C910.561 87.5545 911.714 93.76 911.613 100.009C911.711 106.345 910.53 112.636 908.141 118.505C905.994 123.735 902.812 128.477 898.786 132.447C894.761 136.416 889.975 139.531 884.717 141.605C873.96 145.797 862.022 145.797 851.265 141.605C846.077 139.558 841.348 136.498 837.354 132.603C833.265 128.594 830.029 123.798 827.841 118.505C825.43 112.64 824.228 106.349 824.306 100.009ZM849.765 100.009C849.765 107.037 851.347 112.34 854.511 116.142C856.269 117.913 858.359 119.318 860.662 120.277C862.965 121.236 865.435 121.73 867.929 121.73C870.424 121.73 872.894 121.236 875.196 120.277C877.499 119.318 879.59 117.913 881.347 116.142C884.511 112.401 886.093 107.037 886.093 100.009C886.093 93.3364 884.511 88.2191 881.347 84.6568C877.734 81.2022 872.928 79.2742 867.929 79.2742C862.931 79.2742 858.125 81.2022 854.511 84.6568C851.347 88.3287 849.765 93.446 849.765 100.009Z" fill="#34503A"/>
<path d="M978.414 125.143C976.476 131.041 972.507 136.059 967.215 139.303C961.488 142.931 954.822 144.796 948.044 144.667C938.88 144.667 931.634 141.612 926.305 135.501C920.976 129.391 918.319 121.012 918.333 110.367V58.0838H942.99V103.4C942.925 106.194 943.356 108.977 944.264 111.62C944.993 113.754 946.146 115.719 947.654 117.395C948.983 118.861 950.636 119.994 952.483 120.704C954.332 121.383 956.287 121.724 958.257 121.711C960.852 121.697 963.419 121.181 965.818 120.19C968.37 119.175 970.701 117.675 972.681 115.772C974.742 113.814 976.415 111.485 977.613 108.908C978.894 106.053 979.532 102.952 979.482 99.8238V58.0838H1004.14V120.725C1004.14 123.878 1004.4 127.026 1004.92 130.137C1005.45 133.369 1006.33 136.533 1007.55 139.57L982.893 142.961C981.974 141.071 981.284 139.077 980.839 137.022C980.369 135.187 980.114 133.305 980.078 131.411C980.064 130.447 980.146 129.483 980.325 128.534C980.489 127.733 980.695 126.952 980.921 126.15L978.414 125.143Z" fill="#34503A"/>
<path d="M1043.84 76.5801C1044.84 73.6124 1046.33 70.8337 1048.26 68.3595C1050.14 65.9004 1052.4 63.751 1054.95 61.9885C1057.48 60.2349 1060.25 58.8509 1063.17 57.8782C1066.08 56.9164 1069.11 56.4239 1072.17 56.4191C1082.24 56.4191 1090.1 59.4196 1095.76 65.4206C1101.42 71.4217 1104.25 79.8546 1104.25 90.7195V142.961H1079.59V99.1662C1079.59 92.713 1078.26 87.8012 1075.6 84.3896C1074.28 82.7027 1072.57 81.3602 1070.62 80.4765C1068.66 79.5927 1066.53 79.1937 1064.39 79.3134C1058.78 79.1285 1053.32 81.0996 1049.12 84.8212C1045.01 88.4931 1042.95 93.8981 1042.95 101.036V142.961H1018.3V80.3205C1018.3 77.1674 1018.05 74.0193 1017.54 70.9079C1017.06 67.6825 1016.24 64.5191 1015.07 61.4747L1039.73 58.0838C1041.38 61.4129 1042.31 65.056 1042.44 68.7705C1042.47 71.0775 1042.13 73.3747 1041.43 75.5731L1043.84 76.5801Z" fill="#34503A"/>
<path d="M1170.88 127.692C1170.18 130.115 1169.03 132.387 1167.49 134.391C1165.89 136.471 1163.97 138.282 1161.8 139.755C1159.56 141.296 1157.1 142.5 1154.51 143.331C1151.9 144.168 1149.17 144.598 1146.43 144.605C1141.37 144.683 1136.35 143.608 1131.76 141.461C1127.41 139.364 1123.6 136.282 1120.64 132.46C1117.42 128.237 1115.01 123.458 1113.51 118.361C1111.73 112.36 1110.88 106.124 1110.97 99.8649C1110.93 93.9891 1112.05 88.1635 1114.28 82.725C1116.39 77.4898 1119.55 72.7419 1123.56 68.7731C1127.58 64.8042 1132.36 61.6981 1137.62 59.6457C1143.39 57.3337 1149.56 56.1747 1155.78 56.2341C1158.49 56.2341 1161.21 56.3369 1164 56.5013C1166.67 56.6603 1169.33 56.969 1171.97 57.4261V17.3507H1173.68L1196.59 20.7417V120.725C1196.59 123.877 1196.85 127.025 1197.35 130.137C1197.9 133.365 1198.79 136.527 1200 139.57L1175.34 142.961C1173.74 139.974 1172.81 136.669 1172.63 133.282C1172.59 131.726 1172.82 130.176 1173.31 128.699L1170.88 127.692ZM1136.43 100.009C1136.43 114.504 1142.43 121.745 1154.43 121.732C1156.95 121.807 1159.45 121.237 1161.69 120.075C1163.93 118.914 1165.83 117.199 1167.23 115.094C1170.35 110.696 1171.89 104.633 1171.89 96.9466V82.5606C1167.12 80.3037 1161.9 79.1985 1156.62 79.334C1150.08 79.334 1145.07 81.0877 1141.6 84.5952C1138.15 88.0684 1136.43 93.2268 1136.43 100.009Z" fill="#34503A"/>
</svg>
