<svg width="600" height="455" viewBox="0 0 600 455" fill="none" xmlns="http://www.w3.org/2000/svg">
<path d="M314.929 197.885C314.929 145.935 316.14 93.9858 314.468 42.3825C313.545 14.4452 318.677 1.97732 351.659 0.822886C466.231 -2.0632 466.173 -3.56397 466.173 109.686C466.173 175.835 465.481 241.984 466.692 308.133C466.692 323.372 456.025 349.982 484.797 349.289C508.784 348.654 499.212 324.526 499.558 310.5C500.827 262.245 501.231 213.932 499.558 165.676C498.29 124.809 517.548 124.578 545.687 139.99C556.714 145.769 566.71 153.337 575.267 162.386C607.845 198.693 608.191 376.303 576.593 414.457C546.436 450.822 442.59 466.407 378.644 443.318C323.751 423.346 312.277 379.304 314.41 326.778C316.313 283.775 314.929 240.83 314.929 197.885Z" fill="#34503A"/>
<path d="M282.582 181.492C282.582 226.226 279.468 271.249 283.447 315.637C287.656 362.277 259.171 355.292 230.226 357.37C195.63 359.794 185.308 352.637 185.193 313.328C185.193 299.187 184.27 284.468 185.193 270.499C186.173 253.76 195.457 231.768 173.142 231.537C149.213 231.537 153.941 257.05 153.71 274.078C153.134 320.601 152.269 367.241 153.71 413.707C154.691 441.298 145.004 449.494 117.153 451.572C0.0448478 460.23 0.0448471 461.327 0.33315 343.228C0.33315 305.651 -0.416437 268.19 0.33315 230.44C2.35127 164.984 34.6412 132.775 100.317 130.697C111.04 129.745 121.826 129.745 132.549 130.697C173.834 136.469 187.672 124.925 185.943 78.7473C185.539 68.1264 185.943 62.6429 185.424 46.5962C183.521 4.63252 200.531 1.05377 234.723 0.591998C270.646 0.130224 286.618 7.7495 283.562 47.2889C280.102 91.7924 282.582 136.758 282.582 181.492Z" fill="#34503A"/>
</svg>
